# xmcd CD database file
#
# Track frame offsets:
#	150
#	18126
#	34304
#	50855
#	74417
#	91070
#	111790
#	129517
#	144016
#	167305
#	189533
#	206462
#	220474
#	237203
#	251426
#	270661
#	292209
#
# Disc length: 4359 seconds
#
# Revision: 3
# Processed by: cddbd v1.5.1PL0 Copyright (c) Steve Scherf et al.
# Submitted via: CDex 1.51
#
DISCID=f6110511
DTITLE=Various Artist - Promo Only Canada - January 2004 Rhythm Radio
DYEAR=2004
DGENRE=Blues
TTITLE0=Ago - Tell Me Where You Are (O.S.I.R.I.S. vs. Bootstar Remix Edit)
TTITLE1=Tim Deluxe - Less Talk More, Action (Radio Edit)
TTITLE2=Ana Klein - Emotion (Radio Edit)
TTITLE3=DJ Lhasa - Giulia (Mabra Extended Mix)
TTITLE4=Navy Blue - What A Feeling (Piano Edit)
TTITLE5=Erin McKeown - Cosmopolitans (Trifactor Remix Radio Edit)
TTITLE6=Kristine W - Fly Again (Scumfrog Radio Remix)
TTITLE7=Kylie Minogue - Slow
TTITLE8=Boogie Pimps - Somebody To Love (Main Club Mix)
TTITLE9=Gambafreaks - Natural Woman (Sfaction Mix)
TTITLE10=Rocco - Generation Of Love (Radio Edit)
TTITLE11=Groove Coverage - Poison (Club Mix Short)
TTITLE12=Gaudino Feat. Crystal Waters - Destination Unknown (Radio Edit)
TTITLE13=Special D. - Come With Me (Single Edit)
TTITLE14=Lee Cabrera - Shake It (Radio Edit)
TTITLE15=Joee - Question Of Time (Extended Version)
TTITLE16=ATB Feat. Roberta Harrison - Long Way Home (Steve Murano Remix)
EXTD=YEAR: 2004
EXTT0=
EXTT1=
EXTT2=
EXTT3=
EXTT4=
EXTT5=
EXTT6=
EXTT7=
EXTT8=
EXTT9=
EXTT10=
EXTT11=
EXTT12=
EXTT13=
EXTT14=
EXTT15=
EXTT16=
PLAYORDER=
